# xmcd
#
# Track frame offsets:
#	150
#	14622
#	25331
#	42349
#	59619
#	75028
#	91259
#	101115
#	113130
#	126674
#	138912
#	152949
#	165638
#	181547
#	198012
#
# Disc length: 2839 seconds
#
# Revision: 0
# Processed by: cddbd v1.5.1PL0 Copyright (c) Steve Scherf et al.
# Submitted via: dBpowerAMP V4.0
#
DISCID=be0b150f
DTITLE=Danúbio Azul - Beija Beija
DYEAR=2005
DGENRE=Bandinha
TTITLE0=Beija Beija
TTITLE1=Hino nacional dos cacvhaceiros do Brasil
TTITLE2=Pra eternidade
TTITLE3=Mentio pro meu coração
TTITLE4=Cadê o homem
TTITLE5=Laco Aberto
TTITLE6=Amor de Motoqueiro
TTITLE7=Vem Dancar comigo(Beer Barrel Polka)
TTITLE8=Bilhete de Amor
TTITLE9=Quero Repetir
TTITLE10=Não vá embora
TTITLE11=Vou quebrar a rotina
TTITLE12=É o bicho]
TTITLE13=Telefonema anonimo(aovivi)
TTITLE14=Cadê a festa RMX
EXTD=
EXTT0=
EXTT1=
EXTT2=
EXTT3=
EXTT4=
EXTT5=
EXTT6=
EXTT7=
EXTT8=
EXTT9=
EXTT10=
EXTT11=
EXTT12=
EXTT13=
EXTT14=
PLAYORDER=
